<svg id="Layer_1" data-name="Layer 1" xmlns="http://www.w3.org/2000/svg" viewBox="0 0 337.71 104.26"><defs><style>.cls-1{fill:#333;}.cls-2{fill:#0071bc;}.cls-3{fill:#fff;}.cls-4{fill:#6d4a2d;}</style></defs><title>KTMLabs</title><path class="cls-1" d="M8.71,40.4H20.05V62.88L40.86,40.4H55.34L33.65,62.56,56.78,94.71H41.94L25.57,70.82l-5.52,5.64V94.71H8.71V40.4ZM74.25,50H57.85V40.4H102V50H85.59V94.71H74.25V50Zm44.55,44.67H108.2V40.4h16.63l9.89,43h0l9.76-43h16.4V94.71h-10.6V49h0L140.13,94.71H129L118.82,48h0V94.71Z"/><rect class="cls-2" x="173.94" y="35.79" width="163.78" height="63.99"/><path class="cls-3" d="M186.06,89.45V44.2h9.45V81.42H218v8h-32Z"/><path class="cls-3" d="M231.9,90.31a10.47,10.47,0,0,1-7.48-2.66,9.16,9.16,0,0,1-2.83-7,10.36,10.36,0,0,1,2.56-7.34,12.14,12.14,0,0,1,7.45-3.46l5.82-.8a12.44,12.44,0,0,0,3.79-1,2.1,2.1,0,0,0,1-1.11,3.1,3.1,0,0,0,.26-1.63A3,3,0,0,0,241,63a8.15,8.15,0,0,0-4.34-1,5.81,5.81,0,0,0-3.94,1.23,4.63,4.63,0,0,0-1.51,3.48h-8.47q0.28-5.88,4-8.8t10.93-2.92q6.25,0,9.87,2.63a8.43,8.43,0,0,1,3.62,7.2V83.63a9.35,9.35,0,0,0,.37,3.16A2.76,2.76,0,0,0,253,88.22v1.23h-9.54v0a21.79,21.79,0,0,1-.77-4l0-.06A13.44,13.44,0,0,1,231.9,90.31Zm10.62-13.24V73.23a14.44,14.44,0,0,1-4.06,1.38l-3.26.62a6.73,6.73,0,0,0-3.51,1.58,3.87,3.87,0,0,0-1.2,2.91,4.38,4.38,0,0,0,1.08,3.14,4,4,0,0,0,3,1.14,8.41,8.41,0,0,0,6.77-3,4.81,4.81,0,0,0,.83-1.72A7.73,7.73,0,0,0,242.52,77.08Z"/><path class="cls-3" d="M258.69,44.2h8.83V60.33l0.18-.25a11,11,0,0,1,9.42-5,12.62,12.62,0,0,1,10.25,4.71q3.88,4.71,3.88,12.41,0,8.16-3.88,13.14a12.35,12.35,0,0,1-10.25,5,11.34,11.34,0,0,1-9.42-4.68l-0.37-.49v4.31h-8.65V44.2ZM274.6,83a6.58,6.58,0,0,0,5.57-2.66q2-2.66,2-7.4t-2-7.56a6.94,6.94,0,0,0-11.08.08q-2,2.8-2,7.79a11.48,11.48,0,0,0,2,7.17A6.53,6.53,0,0,0,274.6,83Z"/><path class="cls-3" d="M316.4,66a3.66,3.66,0,0,0-1.6-3.11,7,7,0,0,0-4.25-1.17,7.65,7.65,0,0,0-4,.88A2.73,2.73,0,0,0,305.13,65q0,1.11,1.63,1.91a30.26,30.26,0,0,0,5.7,1.69q8.13,1.81,10.87,4t2.75,6.77a9.45,9.45,0,0,1-4,7.93q-4,3-10.51,3-7.73,0-11.9-3a10.58,10.58,0,0,1-4.45-8.62h9a4.35,4.35,0,0,0,2,3.62,9.44,9.44,0,0,0,5.31,1.31,8,8,0,0,0,4.14-.91,2.83,2.83,0,0,0,1.49-2.54,2.3,2.3,0,0,0-1.45-1.94,22.33,22.33,0,0,0-5.08-1.57q-8.5-1.91-11.36-4t-2.86-6.49a9.92,9.92,0,0,1,3.71-8q3.71-3.06,9.77-3.06,6.83,0,11,3A9.31,9.31,0,0,1,325.15,66H316.4Z"/><path class="cls-4" d="M162.54,104.26H3.87v-5H162.54v5Zm-52.07-80.4v-7.4H55.95v7.4h54.52ZM83.21,0L77.74,5.45H88.68Zm81.85,33.71a5.46,5.46,0,0,1-3.44.88L129.76,25.5H36.65L4.8,34.59a5.46,5.46,0,0,1-3.44-.88L0,32.59l0.48,3.2H165.93l0.48-3.2ZM44.3,14.83h78.49l0.3-2-0.84.69a3,3,0,0,1-1.77.54l-15.12-7H61l-15.12,7a3,3,0,0,1-1.77-.54l-0.84-.69,0.3,2H44.3Z"/></svg>